<mxfile host="app.diagrams.net" modified="2021-08-05T02:29:02.463Z" agent="5.0 (Windows NT 10.0; Win64; x64) AppleWebKit/537.36 (KHTML, like Gecko) Chrome/92.0.4515.107 Safari/537.36" etag="7aLAvVdXR_eP2AnkyBqf" version="14.9.4" type="github">
  <diagram id="C5RBs43oDa-KdzZeNtuy" name="Page-1">
    <mxGraphModel dx="981" dy="526" grid="1" gridSize="10" guides="1" tooltips="1" connect="1" arrows="1" fold="1" page="1" pageScale="1" pageWidth="827" pageHeight="1169" math="0" shadow="0">
      <root>
        <mxCell id="WIyWlLk6GJQsqaUBKTNV-0" />
        <mxCell id="WIyWlLk6GJQsqaUBKTNV-1" parent="WIyWlLk6GJQsqaUBKTNV-0" />
        <mxCell id="HRKX2HEnGMGtDpEJBREF-33" value="" style="rounded=0;whiteSpace=wrap;html=1;labelBackgroundColor=none;fillColor=#ffe6cc;strokeColor=#d79b00;" vertex="1" parent="WIyWlLk6GJQsqaUBKTNV-1">
          <mxGeometry x="20" y="450" width="770" height="210" as="geometry" />
        </mxCell>
        <mxCell id="HRKX2HEnGMGtDpEJBREF-42" value="" style="rounded=0;whiteSpace=wrap;html=1;labelBackgroundColor=none;fillColor=#fff2cc;strokeColor=#d6b656;" vertex="1" parent="WIyWlLk6GJQsqaUBKTNV-1">
          <mxGeometry x="20" y="660" width="770" height="210" as="geometry" />
        </mxCell>
        <mxCell id="HRKX2HEnGMGtDpEJBREF-28" value="" style="rounded=0;whiteSpace=wrap;html=1;labelBackgroundColor=none;fillColor=#fff2cc;strokeColor=#d6b656;" vertex="1" parent="WIyWlLk6GJQsqaUBKTNV-1">
          <mxGeometry x="20" y="140" width="770" height="310" as="geometry" />
        </mxCell>
        <mxCell id="WIyWlLk6GJQsqaUBKTNV-3" value="" style="rounded=1;whiteSpace=wrap;html=1;fontSize=12;glass=0;strokeWidth=1;shadow=0;labelBackgroundColor=none;fillColor=#dae8fc;strokeColor=#6c8ebf;" parent="WIyWlLk6GJQsqaUBKTNV-1" vertex="1">
          <mxGeometry x="249" y="10" width="120" height="70" as="geometry" />
        </mxCell>
        <mxCell id="HRKX2HEnGMGtDpEJBREF-78" style="edgeStyle=orthogonalEdgeStyle;orthogonalLoop=1;jettySize=auto;html=1;exitX=0.5;exitY=1;exitDx=0;exitDy=0;entryX=0;entryY=0;entryDx=41.125;entryDy=0;entryPerimeter=0;rounded=1;" edge="1" parent="WIyWlLk6GJQsqaUBKTNV-1" source="WIyWlLk6GJQsqaUBKTNV-6" target="HRKX2HEnGMGtDpEJBREF-77">
          <mxGeometry relative="1" as="geometry" />
        </mxCell>
        <mxCell id="WIyWlLk6GJQsqaUBKTNV-6" value="&lt;b&gt;Cereal&amp;nbsp;&lt;br&gt;Puzzle&lt;/b&gt;" style="rhombus;whiteSpace=wrap;html=1;shadow=0;fontFamily=Helvetica;fontSize=12;align=center;strokeWidth=1;spacing=6;spacingTop=-4;fillColor=#f8cecc;strokeColor=#b85450;" parent="WIyWlLk6GJQsqaUBKTNV-1" vertex="1">
          <mxGeometry x="69" y="230" width="100" height="100" as="geometry" />
        </mxCell>
        <mxCell id="HRKX2HEnGMGtDpEJBREF-2" style="edgeStyle=orthogonalEdgeStyle;rounded=0;orthogonalLoop=1;jettySize=auto;html=1;" edge="1" parent="WIyWlLk6GJQsqaUBKTNV-1" source="HRKX2HEnGMGtDpEJBREF-1" target="WIyWlLk6GJQsqaUBKTNV-3">
          <mxGeometry relative="1" as="geometry">
            <Array as="points">
              <mxPoint x="219" y="45" />
              <mxPoint x="219" y="45" />
            </Array>
          </mxGeometry>
        </mxCell>
        <mxCell id="HRKX2HEnGMGtDpEJBREF-1" value="" style="rounded=1;whiteSpace=wrap;html=1;fontSize=12;glass=0;strokeWidth=1;shadow=0;fillColor=#e1d5e7;strokeColor=#9673a6;" vertex="1" parent="WIyWlLk6GJQsqaUBKTNV-1">
          <mxGeometry x="59" y="10" width="120" height="70" as="geometry" />
        </mxCell>
        <mxCell id="HRKX2HEnGMGtDpEJBREF-3" value="Slow Zoom-in on the room" style="text;html=1;align=center;verticalAlign=middle;whiteSpace=wrap;rounded=0;" vertex="1" parent="WIyWlLk6GJQsqaUBKTNV-1">
          <mxGeometry x="59" y="10" width="120" height="70" as="geometry" />
        </mxCell>
        <mxCell id="HRKX2HEnGMGtDpEJBREF-4" value="" style="shadow=0;dashed=0;html=1;labelPosition=center;verticalLabelPosition=bottom;verticalAlign=top;align=center;outlineConnect=0;shape=mxgraph.veeam.audio_file;labelBackgroundColor=none;fillColor=#e1d5e7;strokeColor=#9673a6;" vertex="1" parent="WIyWlLk6GJQsqaUBKTNV-1">
          <mxGeometry x="69" y="90" width="20" height="30" as="geometry" />
        </mxCell>
        <mxCell id="HRKX2HEnGMGtDpEJBREF-5" value="fever_dream.wav&lt;br&gt;bgm.loop = false" style="text;html=1;strokeColor=none;fillColor=none;align=center;verticalAlign=middle;whiteSpace=wrap;rounded=0;labelBackgroundColor=none;" vertex="1" parent="WIyWlLk6GJQsqaUBKTNV-1">
          <mxGeometry x="129" y="95" width="40" height="20" as="geometry" />
        </mxCell>
        <mxCell id="HRKX2HEnGMGtDpEJBREF-14" style="edgeStyle=orthogonalEdgeStyle;rounded=0;orthogonalLoop=1;jettySize=auto;html=1;entryX=0.5;entryY=0;entryDx=0;entryDy=0;" edge="1" parent="WIyWlLk6GJQsqaUBKTNV-1" source="HRKX2HEnGMGtDpEJBREF-6">
          <mxGeometry relative="1" as="geometry">
            <mxPoint x="309" y="220" as="targetPoint" />
          </mxGeometry>
        </mxCell>
        <mxCell id="HRKX2HEnGMGtDpEJBREF-15" style="edgeStyle=orthogonalEdgeStyle;rounded=1;orthogonalLoop=1;jettySize=auto;html=1;exitX=0.5;exitY=1;exitDx=0;exitDy=0;dashed=1;" edge="1" parent="WIyWlLk6GJQsqaUBKTNV-1" source="HRKX2HEnGMGtDpEJBREF-6" target="WIyWlLk6GJQsqaUBKTNV-6">
          <mxGeometry relative="1" as="geometry">
            <mxPoint x="249" y="220" as="targetPoint" />
            <Array as="points">
              <mxPoint x="299" y="80" />
              <mxPoint x="299" y="160" />
              <mxPoint x="119" y="160" />
            </Array>
          </mxGeometry>
        </mxCell>
        <mxCell id="HRKX2HEnGMGtDpEJBREF-101" value="Examine Text on objects,&lt;br&gt;Cereal not visible" style="edgeLabel;html=1;align=center;verticalAlign=middle;resizable=0;points=[];" vertex="1" connectable="0" parent="HRKX2HEnGMGtDpEJBREF-15">
          <mxGeometry x="0.8613" relative="1" as="geometry">
            <mxPoint y="-17" as="offset" />
          </mxGeometry>
        </mxCell>
        <mxCell id="HRKX2HEnGMGtDpEJBREF-18" style="edgeStyle=orthogonalEdgeStyle;rounded=1;orthogonalLoop=1;jettySize=auto;html=1;exitX=0.5;exitY=1;exitDx=0;exitDy=0;dashed=1;" edge="1" parent="WIyWlLk6GJQsqaUBKTNV-1" source="HRKX2HEnGMGtDpEJBREF-6" target="HRKX2HEnGMGtDpEJBREF-17">
          <mxGeometry relative="1" as="geometry">
            <Array as="points">
              <mxPoint x="319" y="80" />
              <mxPoint x="319" y="160" />
              <mxPoint x="490" y="160" />
            </Array>
          </mxGeometry>
        </mxCell>
        <mxCell id="HRKX2HEnGMGtDpEJBREF-100" value="Examine Text" style="edgeLabel;html=1;align=center;verticalAlign=middle;resizable=0;points=[];" vertex="1" connectable="0" parent="HRKX2HEnGMGtDpEJBREF-18">
          <mxGeometry x="0.8066" relative="1" as="geometry">
            <mxPoint as="offset" />
          </mxGeometry>
        </mxCell>
        <mxCell id="HRKX2HEnGMGtDpEJBREF-6" value="Establishing shot of the room. Man sitting on chair. Camera pans into man&#39;s POV." style="text;html=1;align=center;verticalAlign=middle;whiteSpace=wrap;rounded=0;" vertex="1" parent="WIyWlLk6GJQsqaUBKTNV-1">
          <mxGeometry x="249" y="10" width="120" height="70" as="geometry" />
        </mxCell>
        <mxCell id="HRKX2HEnGMGtDpEJBREF-9" value="" style="shadow=0;dashed=0;html=1;labelPosition=center;verticalLabelPosition=bottom;verticalAlign=top;align=center;outlineConnect=0;shape=mxgraph.veeam.audio_file;labelBackgroundColor=none;fillColor=#dae8fc;strokeColor=#6c8ebf;" vertex="1" parent="WIyWlLk6GJQsqaUBKTNV-1">
          <mxGeometry x="389" y="30" width="20" height="30" as="geometry" />
        </mxCell>
        <mxCell id="HRKX2HEnGMGtDpEJBREF-64" style="edgeStyle=orthogonalEdgeStyle;curved=1;orthogonalLoop=1;jettySize=auto;html=1;" edge="1" parent="WIyWlLk6GJQsqaUBKTNV-1" source="HRKX2HEnGMGtDpEJBREF-10" target="HRKX2HEnGMGtDpEJBREF-30">
          <mxGeometry relative="1" as="geometry">
            <Array as="points">
              <mxPoint x="530" y="45" />
              <mxPoint x="530" y="199" />
            </Array>
          </mxGeometry>
        </mxCell>
        <mxCell id="HRKX2HEnGMGtDpEJBREF-10" value="slot_salad.wav&lt;br&gt;bgm.loop = true" style="text;html=1;strokeColor=none;fillColor=none;align=center;verticalAlign=middle;whiteSpace=wrap;rounded=0;labelBackgroundColor=none;" vertex="1" parent="WIyWlLk6GJQsqaUBKTNV-1">
          <mxGeometry x="409" y="32.5" width="110" height="25" as="geometry" />
        </mxCell>
        <mxCell id="HRKX2HEnGMGtDpEJBREF-88" style="edgeStyle=orthogonalEdgeStyle;rounded=1;orthogonalLoop=1;jettySize=auto;html=1;" edge="1" parent="WIyWlLk6GJQsqaUBKTNV-1" source="HRKX2HEnGMGtDpEJBREF-16" target="HRKX2HEnGMGtDpEJBREF-34">
          <mxGeometry relative="1" as="geometry">
            <Array as="points">
              <mxPoint x="309" y="480" />
              <mxPoint x="119" y="480" />
            </Array>
          </mxGeometry>
        </mxCell>
        <mxCell id="HRKX2HEnGMGtDpEJBREF-94" value="&lt;b&gt;PLACE PAINTINGS IN CORRECT POSITION,&lt;br&gt;ROTATION&lt;br&gt;&lt;/b&gt;" style="edgeLabel;html=1;align=center;verticalAlign=middle;resizable=0;points=[];" vertex="1" connectable="0" parent="HRKX2HEnGMGtDpEJBREF-88">
          <mxGeometry x="-0.3118" relative="1" as="geometry">
            <mxPoint as="offset" />
          </mxGeometry>
        </mxCell>
        <mxCell id="HRKX2HEnGMGtDpEJBREF-90" style="edgeStyle=orthogonalEdgeStyle;rounded=1;orthogonalLoop=1;jettySize=auto;html=1;exitX=1;exitY=0;exitDx=0;exitDy=0;entryX=0;entryY=0.5;entryDx=0;entryDy=0;" edge="1" parent="WIyWlLk6GJQsqaUBKTNV-1" source="HRKX2HEnGMGtDpEJBREF-16" target="HRKX2HEnGMGtDpEJBREF-31">
          <mxGeometry relative="1" as="geometry">
            <Array as="points">
              <mxPoint x="334" y="200" />
              <mxPoint x="530" y="200" />
              <mxPoint x="530" y="225" />
            </Array>
          </mxGeometry>
        </mxCell>
        <mxCell id="HRKX2HEnGMGtDpEJBREF-91" value="&lt;b&gt;ON FIRST INTERACTION&lt;/b&gt;" style="edgeLabel;html=1;align=center;verticalAlign=middle;resizable=0;points=[];" vertex="1" connectable="0" parent="HRKX2HEnGMGtDpEJBREF-90">
          <mxGeometry x="-0.7884" y="-2" relative="1" as="geometry">
            <mxPoint x="57" as="offset" />
          </mxGeometry>
        </mxCell>
        <mxCell id="HRKX2HEnGMGtDpEJBREF-16" value="&lt;b&gt;Painting&lt;br&gt;Puzzle&lt;/b&gt;" style="rhombus;whiteSpace=wrap;html=1;shadow=0;fontFamily=Helvetica;fontSize=12;align=center;strokeWidth=1;spacing=6;spacingTop=-4;fillColor=#d5e8d4;strokeColor=#82b366;" vertex="1" parent="WIyWlLk6GJQsqaUBKTNV-1">
          <mxGeometry x="259" y="185" width="100" height="100" as="geometry" />
        </mxCell>
        <mxCell id="HRKX2HEnGMGtDpEJBREF-17" value="&lt;b&gt;Grandfather&lt;br&gt;Clock&lt;/b&gt;" style="rhombus;whiteSpace=wrap;html=1;shadow=0;fontFamily=Helvetica;fontSize=12;align=center;strokeWidth=1;spacing=6;spacingTop=-4;fillColor=#d5e8d4;strokeColor=#82b366;" vertex="1" parent="WIyWlLk6GJQsqaUBKTNV-1">
          <mxGeometry x="440" y="279" width="100" height="100" as="geometry" />
        </mxCell>
        <mxCell id="HRKX2HEnGMGtDpEJBREF-23" value="&lt;b&gt;WIN&lt;/b&gt;" style="shape=tape;whiteSpace=wrap;html=1;labelBackgroundColor=none;fillColor=#d5e8d4;strokeColor=#82b366;" vertex="1" parent="WIyWlLk6GJQsqaUBKTNV-1">
          <mxGeometry x="620" y="810" width="120" height="100" as="geometry" />
        </mxCell>
        <mxCell id="HRKX2HEnGMGtDpEJBREF-29" value="Radio" style="swimlane;fontStyle=1;childLayout=stackLayout;horizontal=1;startSize=26;horizontalStack=0;resizeParent=1;resizeParentMax=0;resizeLast=0;collapsible=1;marginBottom=0;labelBackgroundColor=none;fillColor=#dae8fc;strokeColor=#6c8ebf;" vertex="1" parent="WIyWlLk6GJQsqaUBKTNV-1">
          <mxGeometry x="610" y="160" width="140" height="104" as="geometry" />
        </mxCell>
        <mxCell id="HRKX2HEnGMGtDpEJBREF-30" value="slot_salad.wav" style="text;strokeColor=#6c8ebf;fillColor=#dae8fc;align=left;verticalAlign=top;spacingLeft=4;spacingRight=4;overflow=hidden;rotatable=0;points=[[0,0.5],[1,0.5]];portConstraint=eastwest;" vertex="1" parent="HRKX2HEnGMGtDpEJBREF-29">
          <mxGeometry y="26" width="140" height="26" as="geometry" />
        </mxCell>
        <mxCell id="HRKX2HEnGMGtDpEJBREF-31" value="slot_salad.wav + drums" style="text;strokeColor=#6c8ebf;fillColor=#dae8fc;align=left;verticalAlign=top;spacingLeft=4;spacingRight=4;overflow=hidden;rotatable=0;points=[[0,0.5],[1,0.5]];portConstraint=eastwest;" vertex="1" parent="HRKX2HEnGMGtDpEJBREF-29">
          <mxGeometry y="52" width="140" height="26" as="geometry" />
        </mxCell>
        <mxCell id="HRKX2HEnGMGtDpEJBREF-32" value="PAUSE" style="text;strokeColor=#6c8ebf;fillColor=#dae8fc;align=left;verticalAlign=top;spacingLeft=4;spacingRight=4;overflow=hidden;rotatable=0;points=[[0,0.5],[1,0.5]];portConstraint=eastwest;fontStyle=1" vertex="1" parent="HRKX2HEnGMGtDpEJBREF-29">
          <mxGeometry y="78" width="140" height="26" as="geometry" />
        </mxCell>
        <mxCell id="HRKX2HEnGMGtDpEJBREF-34" value="&lt;b&gt;Cereal&amp;nbsp;&lt;br&gt;Puzzle&lt;/b&gt;" style="rhombus;whiteSpace=wrap;html=1;shadow=0;fontFamily=Helvetica;fontSize=12;align=center;strokeWidth=1;spacing=6;spacingTop=-4;fillColor=#d5e8d4;strokeColor=#82b366;" vertex="1" parent="WIyWlLk6GJQsqaUBKTNV-1">
          <mxGeometry x="69" y="520" width="100" height="100" as="geometry" />
        </mxCell>
        <mxCell id="HRKX2HEnGMGtDpEJBREF-35" value="Cereal&amp;nbsp;&lt;br&gt;Puzzle" style="rhombus;whiteSpace=wrap;html=1;shadow=0;fontFamily=Helvetica;fontSize=12;align=center;strokeWidth=1;spacing=6;spacingTop=-4;" vertex="1" parent="WIyWlLk6GJQsqaUBKTNV-1">
          <mxGeometry x="259" y="530" width="100" height="100" as="geometry" />
        </mxCell>
        <mxCell id="HRKX2HEnGMGtDpEJBREF-36" value="&lt;b&gt;Painting&lt;br&gt;Puzzle&lt;/b&gt;" style="rhombus;whiteSpace=wrap;html=1;shadow=0;fontFamily=Helvetica;fontSize=12;align=center;strokeWidth=1;spacing=6;spacingTop=-4;fillColor=#f8cecc;strokeColor=#b85450;" vertex="1" parent="WIyWlLk6GJQsqaUBKTNV-1">
          <mxGeometry x="259" y="530" width="100" height="100" as="geometry" />
        </mxCell>
        <mxCell id="HRKX2HEnGMGtDpEJBREF-37" value="&lt;b&gt;Grandfather&lt;br&gt;Clock&lt;/b&gt;" style="rhombus;whiteSpace=wrap;html=1;shadow=0;fontFamily=Helvetica;fontSize=12;align=center;strokeWidth=1;spacing=6;spacingTop=-4;fillColor=#d5e8d4;strokeColor=#82b366;" vertex="1" parent="WIyWlLk6GJQsqaUBKTNV-1">
          <mxGeometry x="459" y="530" width="100" height="100" as="geometry" />
        </mxCell>
        <mxCell id="HRKX2HEnGMGtDpEJBREF-38" value="Radio" style="swimlane;fontStyle=1;childLayout=stackLayout;horizontal=1;startSize=26;horizontalStack=0;resizeParent=1;resizeParentMax=0;resizeLast=0;collapsible=1;marginBottom=0;labelBackgroundColor=none;fillColor=#dae8fc;strokeColor=#6c8ebf;" vertex="1" parent="WIyWlLk6GJQsqaUBKTNV-1">
          <mxGeometry x="610" y="470" width="140" height="104" as="geometry" />
        </mxCell>
        <mxCell id="HRKX2HEnGMGtDpEJBREF-39" value="Item 1" style="text;strokeColor=#6c8ebf;fillColor=#dae8fc;align=left;verticalAlign=top;spacingLeft=4;spacingRight=4;overflow=hidden;rotatable=0;points=[[0,0.5],[1,0.5]];portConstraint=eastwest;" vertex="1" parent="HRKX2HEnGMGtDpEJBREF-38">
          <mxGeometry y="26" width="140" height="26" as="geometry" />
        </mxCell>
        <mxCell id="HRKX2HEnGMGtDpEJBREF-40" value="Item 2" style="text;strokeColor=#6c8ebf;fillColor=#dae8fc;align=left;verticalAlign=top;spacingLeft=4;spacingRight=4;overflow=hidden;rotatable=0;points=[[0,0.5],[1,0.5]];portConstraint=eastwest;" vertex="1" parent="HRKX2HEnGMGtDpEJBREF-38">
          <mxGeometry y="52" width="140" height="26" as="geometry" />
        </mxCell>
        <mxCell id="HRKX2HEnGMGtDpEJBREF-41" value="Item 3" style="text;strokeColor=#6c8ebf;fillColor=#dae8fc;align=left;verticalAlign=top;spacingLeft=4;spacingRight=4;overflow=hidden;rotatable=0;points=[[0,0.5],[1,0.5]];portConstraint=eastwest;" vertex="1" parent="HRKX2HEnGMGtDpEJBREF-38">
          <mxGeometry y="78" width="140" height="26" as="geometry" />
        </mxCell>
        <mxCell id="HRKX2HEnGMGtDpEJBREF-43" value="&lt;b&gt;Cereal&amp;nbsp;&lt;br&gt;Puzzle&lt;/b&gt;" style="rhombus;whiteSpace=wrap;html=1;shadow=0;fontFamily=Helvetica;fontSize=12;align=center;strokeWidth=1;spacing=6;spacingTop=-4;fillColor=#f8cecc;strokeColor=#b85450;" vertex="1" parent="WIyWlLk6GJQsqaUBKTNV-1">
          <mxGeometry x="69" y="730" width="100" height="100" as="geometry" />
        </mxCell>
        <mxCell id="HRKX2HEnGMGtDpEJBREF-44" value="Cereal&amp;nbsp;&lt;br&gt;Puzzle" style="rhombus;whiteSpace=wrap;html=1;shadow=0;fontFamily=Helvetica;fontSize=12;align=center;strokeWidth=1;spacing=6;spacingTop=-4;" vertex="1" parent="WIyWlLk6GJQsqaUBKTNV-1">
          <mxGeometry x="259" y="740" width="100" height="100" as="geometry" />
        </mxCell>
        <mxCell id="HRKX2HEnGMGtDpEJBREF-45" value="&lt;b&gt;Painting&lt;br&gt;Puzzle&lt;/b&gt;" style="rhombus;whiteSpace=wrap;html=1;shadow=0;fontFamily=Helvetica;fontSize=12;align=center;strokeWidth=1;spacing=6;spacingTop=-4;fillColor=#f8cecc;strokeColor=#b85450;" vertex="1" parent="WIyWlLk6GJQsqaUBKTNV-1">
          <mxGeometry x="259" y="740" width="100" height="100" as="geometry" />
        </mxCell>
        <mxCell id="HRKX2HEnGMGtDpEJBREF-51" style="edgeStyle=orthogonalEdgeStyle;rounded=0;orthogonalLoop=1;jettySize=auto;html=1;entryX=0;entryY=0.5;entryDx=0;entryDy=0;entryPerimeter=0;" edge="1" parent="WIyWlLk6GJQsqaUBKTNV-1" source="HRKX2HEnGMGtDpEJBREF-46" target="HRKX2HEnGMGtDpEJBREF-23">
          <mxGeometry relative="1" as="geometry">
            <Array as="points">
              <mxPoint x="509" y="860" />
            </Array>
          </mxGeometry>
        </mxCell>
        <mxCell id="HRKX2HEnGMGtDpEJBREF-58" value="&lt;b&gt;ENTER THE CORRECT TIME&lt;/b&gt;" style="edgeLabel;html=1;align=center;verticalAlign=middle;resizable=0;points=[];" vertex="1" connectable="0" parent="HRKX2HEnGMGtDpEJBREF-51">
          <mxGeometry x="-0.413" y="3" relative="1" as="geometry">
            <mxPoint as="offset" />
          </mxGeometry>
        </mxCell>
        <mxCell id="HRKX2HEnGMGtDpEJBREF-46" value="&lt;b&gt;Grandfather&lt;br&gt;Clock&lt;/b&gt;" style="rhombus;whiteSpace=wrap;html=1;shadow=0;fontFamily=Helvetica;fontSize=12;align=center;strokeWidth=1;spacing=6;spacingTop=-4;fillColor=#d5e8d4;strokeColor=#82b366;" vertex="1" parent="WIyWlLk6GJQsqaUBKTNV-1">
          <mxGeometry x="459" y="740" width="100" height="100" as="geometry" />
        </mxCell>
        <mxCell id="HRKX2HEnGMGtDpEJBREF-47" value="Radio" style="swimlane;fontStyle=1;childLayout=stackLayout;horizontal=1;startSize=26;horizontalStack=0;resizeParent=1;resizeParentMax=0;resizeLast=0;collapsible=1;marginBottom=0;labelBackgroundColor=none;fillColor=#dae8fc;strokeColor=#6c8ebf;" vertex="1" parent="WIyWlLk6GJQsqaUBKTNV-1">
          <mxGeometry x="610" y="680" width="140" height="104" as="geometry" />
        </mxCell>
        <mxCell id="HRKX2HEnGMGtDpEJBREF-48" value="Item 1" style="text;strokeColor=#6c8ebf;fillColor=#dae8fc;align=left;verticalAlign=top;spacingLeft=4;spacingRight=4;overflow=hidden;rotatable=0;points=[[0,0.5],[1,0.5]];portConstraint=eastwest;" vertex="1" parent="HRKX2HEnGMGtDpEJBREF-47">
          <mxGeometry y="26" width="140" height="26" as="geometry" />
        </mxCell>
        <mxCell id="HRKX2HEnGMGtDpEJBREF-49" value="Item 2" style="text;strokeColor=#6c8ebf;fillColor=#dae8fc;align=left;verticalAlign=top;spacingLeft=4;spacingRight=4;overflow=hidden;rotatable=0;points=[[0,0.5],[1,0.5]];portConstraint=eastwest;" vertex="1" parent="HRKX2HEnGMGtDpEJBREF-47">
          <mxGeometry y="52" width="140" height="26" as="geometry" />
        </mxCell>
        <mxCell id="HRKX2HEnGMGtDpEJBREF-50" value="Item 3" style="text;strokeColor=#6c8ebf;fillColor=#dae8fc;align=left;verticalAlign=top;spacingLeft=4;spacingRight=4;overflow=hidden;rotatable=0;points=[[0,0.5],[1,0.5]];portConstraint=eastwest;" vertex="1" parent="HRKX2HEnGMGtDpEJBREF-47">
          <mxGeometry y="78" width="140" height="26" as="geometry" />
        </mxCell>
        <mxCell id="HRKX2HEnGMGtDpEJBREF-52" value="&lt;b&gt;&lt;font style=&quot;font-size: 30px&quot;&gt;STAGE 1&lt;/font&gt;&lt;/b&gt;" style="text;html=1;strokeColor=none;fillColor=none;align=center;verticalAlign=middle;whiteSpace=wrap;rounded=0;labelBackgroundColor=none;rotation=-90;" vertex="1" parent="WIyWlLk6GJQsqaUBKTNV-1">
          <mxGeometry x="-31" y="285" width="160" height="20" as="geometry" />
        </mxCell>
        <mxCell id="HRKX2HEnGMGtDpEJBREF-53" value="&lt;b&gt;&lt;font style=&quot;font-size: 30px&quot;&gt;STAGE 2&lt;/font&gt;&lt;/b&gt;" style="text;html=1;strokeColor=none;fillColor=none;align=center;verticalAlign=middle;whiteSpace=wrap;rounded=0;labelBackgroundColor=none;rotation=-90;" vertex="1" parent="WIyWlLk6GJQsqaUBKTNV-1">
          <mxGeometry x="-31" y="545" width="160" height="20" as="geometry" />
        </mxCell>
        <mxCell id="HRKX2HEnGMGtDpEJBREF-55" value="&lt;b&gt;&lt;font style=&quot;font-size: 30px&quot;&gt;STAGE 3&lt;/font&gt;&lt;/b&gt;" style="text;html=1;strokeColor=none;fillColor=none;align=center;verticalAlign=middle;whiteSpace=wrap;rounded=0;labelBackgroundColor=none;rotation=-90;" vertex="1" parent="WIyWlLk6GJQsqaUBKTNV-1">
          <mxGeometry x="-31" y="755" width="160" height="20" as="geometry" />
        </mxCell>
        <mxCell id="HRKX2HEnGMGtDpEJBREF-70" value="Item 3" style="text;strokeColor=#6c8ebf;fillColor=#dae8fc;align=left;verticalAlign=top;spacingLeft=4;spacingRight=4;overflow=hidden;rotatable=0;points=[[0,0.5],[1,0.5]];portConstraint=eastwest;" vertex="1" parent="WIyWlLk6GJQsqaUBKTNV-1">
          <mxGeometry x="610" y="264" width="140" height="26" as="geometry" />
        </mxCell>
        <mxCell id="HRKX2HEnGMGtDpEJBREF-72" value="Item 3" style="text;strokeColor=#6c8ebf;fillColor=#dae8fc;align=left;verticalAlign=top;spacingLeft=4;spacingRight=4;overflow=hidden;rotatable=0;points=[[0,0.5],[1,0.5]];portConstraint=eastwest;" vertex="1" parent="WIyWlLk6GJQsqaUBKTNV-1">
          <mxGeometry x="610" y="290" width="140" height="26" as="geometry" />
        </mxCell>
        <mxCell id="HRKX2HEnGMGtDpEJBREF-73" value="Item 3" style="text;strokeColor=#6c8ebf;fillColor=#dae8fc;align=left;verticalAlign=top;spacingLeft=4;spacingRight=4;overflow=hidden;rotatable=0;points=[[0,0.5],[1,0.5]];portConstraint=eastwest;" vertex="1" parent="WIyWlLk6GJQsqaUBKTNV-1">
          <mxGeometry x="610" y="316" width="140" height="26" as="geometry" />
        </mxCell>
        <mxCell id="HRKX2HEnGMGtDpEJBREF-83" style="edgeStyle=orthogonalEdgeStyle;rounded=1;orthogonalLoop=1;jettySize=auto;html=1;entryX=0;entryY=0.5;entryDx=0;entryDy=0;dashed=1;" edge="1" parent="WIyWlLk6GJQsqaUBKTNV-1" source="HRKX2HEnGMGtDpEJBREF-77" target="HRKX2HEnGMGtDpEJBREF-16">
          <mxGeometry relative="1" as="geometry" />
        </mxCell>
        <mxCell id="HRKX2HEnGMGtDpEJBREF-77" value="Letter about the housekeeper having messed up the paintings again." style="shape=note;whiteSpace=wrap;html=1;backgroundOutline=1;darkOpacity=0.05;labelBackgroundColor=none;size=12;" vertex="1" parent="WIyWlLk6GJQsqaUBKTNV-1">
          <mxGeometry x="74.75" y="350" width="94.25" height="90" as="geometry" />
        </mxCell>
        <mxCell id="HRKX2HEnGMGtDpEJBREF-93" value="" style="edgeStyle=orthogonalEdgeStyle;orthogonalLoop=1;jettySize=auto;html=1;entryX=0;entryY=0.5;entryDx=0;entryDy=0;curved=1;" edge="1" parent="WIyWlLk6GJQsqaUBKTNV-1" source="HRKX2HEnGMGtDpEJBREF-92" target="HRKX2HEnGMGtDpEJBREF-32">
          <mxGeometry relative="1" as="geometry">
            <Array as="points">
              <mxPoint x="398" y="350" />
              <mxPoint x="398" y="250" />
              <mxPoint x="610" y="250" />
            </Array>
          </mxGeometry>
        </mxCell>
        <mxCell id="HRKX2HEnGMGtDpEJBREF-95" value="&lt;b&gt;FINISH &lt;br&gt;READING&lt;/b&gt;" style="edgeLabel;html=1;align=center;verticalAlign=middle;resizable=0;points=[];" vertex="1" connectable="0" parent="HRKX2HEnGMGtDpEJBREF-93">
          <mxGeometry x="-0.1641" y="-2" relative="1" as="geometry">
            <mxPoint x="-4" y="48" as="offset" />
          </mxGeometry>
        </mxCell>
        <mxCell id="HRKX2HEnGMGtDpEJBREF-99" style="edgeStyle=orthogonalEdgeStyle;curved=1;orthogonalLoop=1;jettySize=auto;html=1;exitX=0;exitY=0;exitDx=94.25;exitDy=51;exitPerimeter=0;entryX=-0.025;entryY=0.703;entryDx=0;entryDy=0;entryPerimeter=0;" edge="1" parent="WIyWlLk6GJQsqaUBKTNV-1" source="HRKX2HEnGMGtDpEJBREF-92" target="HRKX2HEnGMGtDpEJBREF-98">
          <mxGeometry relative="1" as="geometry" />
        </mxCell>
        <mxCell id="HRKX2HEnGMGtDpEJBREF-96" style="edgeStyle=orthogonalEdgeStyle;curved=1;orthogonalLoop=1;jettySize=auto;html=1;entryX=0;entryY=1;entryDx=0;entryDy=0;" edge="1" parent="WIyWlLk6GJQsqaUBKTNV-1" source="HRKX2HEnGMGtDpEJBREF-92" target="HRKX2HEnGMGtDpEJBREF-17">
          <mxGeometry relative="1" as="geometry">
            <Array as="points">
              <mxPoint x="380" y="350" />
              <mxPoint x="380" y="380" />
              <mxPoint x="465" y="380" />
            </Array>
          </mxGeometry>
        </mxCell>
        <mxCell id="HRKX2HEnGMGtDpEJBREF-97" value="&lt;b&gt;GRANDFATHER&amp;nbsp;&lt;br&gt;RINGS&lt;/b&gt;" style="edgeLabel;html=1;align=center;verticalAlign=middle;resizable=0;points=[];" vertex="1" connectable="0" parent="HRKX2HEnGMGtDpEJBREF-96">
          <mxGeometry x="-0.0239" y="3" relative="1" as="geometry">
            <mxPoint x="7" y="-7" as="offset" />
          </mxGeometry>
        </mxCell>
        <mxCell id="HRKX2HEnGMGtDpEJBREF-92" value="Riddle/poem about painting positions." style="shape=note;whiteSpace=wrap;html=1;backgroundOutline=1;darkOpacity=0.05;labelBackgroundColor=none;size=12;" vertex="1" parent="WIyWlLk6GJQsqaUBKTNV-1">
          <mxGeometry x="261.87" y="305" width="94.25" height="90" as="geometry" />
        </mxCell>
        <mxCell id="HRKX2HEnGMGtDpEJBREF-98" value="Time has stopped. Hint to adjust the time.&amp;nbsp;" style="shape=note;whiteSpace=wrap;html=1;backgroundOutline=1;darkOpacity=0.05;labelBackgroundColor=none;size=12;" vertex="1" parent="WIyWlLk6GJQsqaUBKTNV-1">
          <mxGeometry x="530" y="350" width="80" height="90" as="geometry" />
        </mxCell>
      </root>
    </mxGraphModel>
  </diagram>
</mxfile>
